<?xml version="1.0" encoding="UTF-8" standalone="no"?>
<svg
   xmlns:dc="http://purl.org/dc/elements/1.1/"
   xmlns:cc="http://creativecommons.org/ns#"
   xmlns:rdf="http://www.w3.org/1999/02/22-rdf-syntax-ns#"
   xmlns:svg="http://www.w3.org/2000/svg"
   xmlns="http://www.w3.org/2000/svg"
   xmlns:sodipodi="http://sodipodi.sourceforge.net/DTD/sodipodi-0.dtd"
   xmlns:inkscape="http://www.inkscape.org/namespaces/inkscape"
   viewBox="0 0 3916 1524"
   version="1.1"
   id="svg56"
   sodipodi:docname="Webpack.svg"
   inkscape:version="1.0.2-2 (e86c870879, 2021-01-15)">
  <metadata
     id="metadata62">
    <rdf:RDF>
      <cc:Work
         rdf:about="">
        <dc:format>image/svg+xml</dc:format>
        <dc:type
           rdf:resource="http://purl.org/dc/dcmitype/StillImage" />
      </cc:Work>
    </rdf:RDF>
  </metadata>
  <defs
     id="defs60" />
  <sodipodi:namedview
     pagecolor="#ffffff"
     bordercolor="#666666"
     borderopacity="1"
     objecttolerance="10"
     gridtolerance="10"
     guidetolerance="10"
     inkscape:pageopacity="0"
     inkscape:pageshadow="2"
     inkscape:window-width="1366"
     inkscape:window-height="745"
     id="namedview58"
     showgrid="false"
     inkscape:zoom="0.18815252"
     inkscape:cx="2328.4012"
     inkscape:cy="431.22766"
     inkscape:window-x="-8"
     inkscape:window-y="-8"
     inkscape:window-maximized="1"
     inkscape:current-layer="svg56" />
  <path
     fill="#ffffff"
     d="m 510.01753,215.01859 493.93117,279.3838 V 1053.2976 L 510.01753,1332.6814 16.086372,1053.2976 V 494.40239 Z"
     id="path48"
     style="stroke-width:1.27631" />
  <path
     fill="#8ed6fb"
     d="M 915.75581,1034.0254 526.35427,1254.3161 V 1082.7803 L 768.9804,949.27852 Z m 26.67483,-24.1223 V 549.28363 l -142.43596,82.32186 v 296.10343 z m -839.68296,24.1223 389.40154,220.2907 V 1082.7803 L 249.39546,949.27852 Z M 76.072843,1009.9031 V 549.28363 L 218.5088,631.60549 V 927.70892 Z M 92.792477,519.41802 492.14922,293.51152 v 165.7924 l -255.89974,140.77676 -2.04209,1.14868 z m 832.918533,0 -399.35674,-225.9065 v 165.7924 l 255.89973,140.64913 2.04209,1.14868 z"
     id="path50"
     style="stroke-width:1.27631" />
  <path
     fill="#1c78c0"
     d="M 492.14922,1043.7253 252.71386,912.01033 v -260.7497 l 239.43536,138.22414 z m 34.20505,0 239.43536,-131.58734 V 651.26063 L 526.35427,789.48477 Z M 509.25174,779.52957 Z M 268.92297,621.13976 509.25174,489.04189 749.58052,621.13976 509.25174,759.87443 Z"
     id="path52"
     style="stroke-width:1.27631" />
</svg>
